<svg width="18" height="22" viewBox="0 0 18 22" fill="none" xmlns="http://www.w3.org/2000/svg">
<path d="M6.08901 12.844C6.65268 12.6762 7.56086 12.4182 8.60513 12.3543C7.97865 10.7731 7.82743 9.38951 7.94906 8.15756C8.08953 6.73479 8.59126 5.5473 9.08033 4.53687C9.1847 4.32126 9.28502 4.12051 9.38121 3.92792C9.51752 3.65526 9.64556 3.39896 9.76533 3.14006C9.96473 2.70905 10.1128 2.32843 10.1876 1.9748C10.2611 1.62707 10.2616 1.31651 10.1745 1.01862C10.0874 0.720313 9.90234 0.399217 9.55034 0.047262C9.09081 -0.0718122 8.58085 0.0327267 8.19855 0.376639L3.66135 4.45829C3.40828 4.68596 3.24215 4.99447 3.19137 5.33107L2.80017 7.92463C3.41532 8.46838 4.9336 10.0491 5.85706 12.2423C5.93947 12.438 6.01713 12.6387 6.08901 12.844Z" fill="#A88BFA"/>
<path d="M2.61665 9.10938C2.59526 9.20063 2.56516 9.28977 2.52671 9.37549L0.128721 14.7202C-0.117575 15.2691 -0.00411518 15.9127 0.415036 16.3444L4.18878 20.2307C6.11589 17.3878 5.83493 14.7132 4.95466 12.6225C4.28722 11.0374 3.27562 9.79666 2.61665 9.10938Z" fill="#A88BFA"/>
<path d="M5.06067 20.6886C5.1268 20.6992 5.19386 20.7055 5.2614 20.7075C5.97757 20.729 7.18201 20.7913 8.15879 20.9713C8.95564 21.1181 10.5352 21.5597 11.8351 21.9397C12.8269 22.2296 13.8491 21.4375 13.993 20.4141C14.0979 19.6678 14.2949 18.8235 14.6577 18.0497L14.6493 18.0526C14.0349 16.3391 13.2532 15.2327 12.4337 14.5262C11.6167 13.8218 10.737 13.4932 9.88764 13.3738C8.47547 13.1752 7.18167 13.5464 6.36674 13.7858C6.85483 15.8192 6.70462 18.2118 5.06067 20.6886Z" fill="#A88BFA"/>
<path d="M15.2863 16.9926C16.1018 15.7619 16.6827 14.8048 16.9893 14.2859C17.1425 14.0263 17.1148 13.7009 16.9331 13.4602C16.4599 12.8331 15.5545 11.5588 15.0612 10.3789C14.5539 9.1658 14.4783 7.28238 14.4739 6.36504C14.4723 6.01633 14.3617 5.67575 14.1461 5.40174L11.2147 1.67773C11.2044 1.84559 11.1802 2.01212 11.1453 2.17711C11.0478 2.63818 10.8637 3.09717 10.6539 3.5508C10.5308 3.81668 10.3886 4.10153 10.245 4.3893C10.1495 4.58082 10.0532 4.77368 9.96148 4.96306C9.4876 5.94219 9.04655 7.00475 8.92335 8.25338C8.80904 9.41071 8.96541 10.7568 9.66994 12.3638C9.78724 12.3738 9.90534 12.3869 10.024 12.4036C11.0349 12.5457 12.096 12.9417 13.0729 13.7839C13.9125 14.5078 14.6712 15.5449 15.2863 16.9926Z" fill="#A88BFA"/>
</svg>
